# xmcd
#
# Track frame offsets: 
#        150
#        16567
#        38315
#        51338
#        67825
#        84510
#        95072
#        110717
#        118882
#        132366
#        153091
#        171717
#        200484
#
# Disc length: 2771 seconds
#
# Revision: 5
# Processed by: cddbd v1.5.2PL0 Copyright (c) Steve Scherf et al.
# Submitted via: ExactAudioCopyFreeDBPlugin 1.0
#
DISCID=aa0ad10d
DTITLE=Christine Lavin - Happydance Of The Xenophobe
DYEAR=2007
DGENRE=Folk
TTITLE0=The Most Polite City In The World
TTITLE1=Happydance
TTITLE2=Chocolate Covered Espresso Beans
TTITLE3=More Than 1,000,000 Americans
TTITLE4=Here Comes Hurricane Season
TTITLE5=Tom Cruise Scares Me
TTITLE6=Smokers
TTITLE7=Russian Michael
TTITLE8=As We Stumble Along
TTITLE9=Whipped Cream
TTITLE10=Why?
TTITLE11=Reminiscing With The Elusive Gentle Lonely Boxer of Love
TTITLE12=Secret Bonus Track
EXTD=ID3G:  80 YEAR: 2007
EXTT0=
EXTT1=
EXTT2=
EXTT3=
EXTT4=
EXTT5=
EXTT6=
EXTT7=
EXTT8=
EXTT9=
EXTT10=
EXTT11=
EXTT12=
PLAYORDER=
